<svg width="534" height="492" viewBox="0 0 534 492" fill="none" xmlns="http://www.w3.org/2000/svg">
<path fill-rule="evenodd" clip-rule="evenodd" d="M121.901 179.128C129.372 180.293 135.975 179.632 138.449 177.79C144.652 173.17 134.927 147.547 125.478 139.74C116.029 131.932 86.6706 138.841 93.3743 159.22C95.701 166.293 101.095 171.249 107.406 174.514L114.322 213.288L136.54 204.211L121.901 179.128Z" fill="#B28B67"/>
<path fill-rule="evenodd" clip-rule="evenodd" d="M107.521 179.671C99.6642 168.404 88.2653 163.193 87.2132 157.153C86.1611 151.112 90.863 147.614 90.863 147.614C90.863 147.614 89.0892 135.511 104.57 131.102C120.052 126.692 131.604 129.15 133.23 144.279C129.641 145.745 124.779 146.217 119.697 150.888C117.278 153.111 118.3 159.118 118.3 159.118L115.593 160.224C115.593 160.224 108.983 155.3 105.86 158.597C102.737 161.894 107.556 167.721 107.556 167.721L110.401 178.494L107.521 179.671Z" fill="#191847"/>
<path fill-rule="evenodd" clip-rule="evenodd" d="M116.7 279.93L182.833 390.159L232.413 483.349H243.092L160.02 279.93L116.7 279.93Z" fill="#997659"/>
<path fill-rule="evenodd" clip-rule="evenodd" d="M228.566 478.149C227.493 477.686 226.221 478.161 225.826 479.261C225.189 481.036 224.39 483.551 224.39 484.995C224.39 487.395 225.192 492 225.192 492C227.985 492 275.39 492 275.39 492C275.39 492 277.346 485.551 273.131 485.036C268.915 484.522 266.127 484.108 266.127 484.108L242.897 473.783C242.383 473.555 241.782 473.795 241.567 474.315L240.11 477.837C240.11 477.837 236.208 479.653 233.768 479.653C232.348 479.653 230.153 478.834 228.566 478.149Z" fill="#E4E4E4"/>
<path fill-rule="evenodd" clip-rule="evenodd" d="M218.643 468.426L239.238 462.215C239.238 462.215 225.703 421.876 206.061 373.431C186.418 324.986 163.87 279.93 163.87 279.93H105.703C105.703 279.93 130.772 336.924 158.856 383.503C186.939 430.082 218.643 468.426 218.643 468.426Z" fill="#00476E"/>
<path fill-rule="evenodd" clip-rule="evenodd" d="M112.354 279.93C106.112 318.665 94.0736 368.154 92.9375 369.681C92.1801 370.699 64.9132 379.809 11.137 397.009L13.4438 406.398C77.5719 397.173 111.362 390.016 114.814 384.927C119.992 377.293 145.846 316.987 155.86 279.93H112.354Z" fill="#B28B67"/>
<path fill-rule="evenodd" clip-rule="evenodd" d="M30.0403 388.893L34.1035 404.015C82.0676 408.209 111.456 405.178 122.269 394.923C133.083 384.668 145.407 346.337 159.241 279.93H103.776C95.0103 334.308 90.11 362.639 89.0746 364.922C88.0391 367.204 68.361 375.195 30.0403 388.893Z" fill="#005F89"/>
<path fill-rule="evenodd" clip-rule="evenodd" d="M15.12 395.589C15.3921 394.449 14.7001 393.275 13.5438 393.078C11.68 392.761 9.0603 392.414 7.63547 392.664C5.26466 393.081 0.855543 394.668 0.855543 394.668C1.3405 397.41 9.57227 443.955 9.57227 443.955C9.57227 443.955 16.2825 444.756 16.0584 440.527C15.8343 436.299 15.7594 433.489 15.7594 433.489L21.9226 408.895C22.0597 408.347 21.7171 407.795 21.1658 407.674L17.4358 406.856C17.4358 406.856 14.9649 403.34 14.5412 400.944C14.2953 399.554 14.7202 397.265 15.12 395.589Z" fill="#E4E4E4"/>
<path fill-rule="evenodd" clip-rule="evenodd" d="M179.267 201.703L151.024 222.706L164.02 233.207L183.396 209.792C194.654 204.929 199.678 201.823 198.469 200.473C197.449 199.335 196.096 199.57 194.849 199.786C193.878 199.955 192.972 200.112 192.339 199.6C190.892 198.432 192.63 193.392 194.484 188.679C196.337 183.966 193.752 184.717 192.332 185.557C187.863 189.583 183.508 194.965 179.267 201.703ZM213.319 220.818L200.916 230.066L203.571 243.403C203.571 243.403 211.394 235.918 218.588 232.784C227.762 228.788 231.34 226.219 235.172 219.637C237.223 216.115 238.445 209.443 235.778 207.701C234.754 207.033 231.623 209.391 228.428 211.798C225.993 213.632 223.521 215.494 221.917 216.065C219.758 216.834 219.614 213.924 219.5 211.599C219.417 209.931 219.35 208.563 218.563 209.072C214.639 209.692 213.319 220.818 213.319 220.818Z" fill="#997659"/>
<path fill-rule="evenodd" clip-rule="evenodd" d="M135.603 221.079C146.302 219.46 160.273 215.196 174.163 203.405L182.022 215.875C172.968 227.758 159.382 238.386 146.402 239.841C136.173 240.987 129.239 229.432 135.603 221.079Z" fill="#E87613"/>
<path fill-rule="evenodd" clip-rule="evenodd" d="M119.522 316.342C109.149 316.45 99.6183 316.548 94.2245 318.417C85.1689 299.14 88.5536 285.727 91.6782 273.344C93.5614 265.881 95.3501 258.792 94.2637 251.02C91.1003 228.388 104.431 190.993 107.112 190.616L107.882 190.508L129.133 187.521L131.566 187.179C134.628 201.03 141.425 215.536 148.266 230.136C149.863 233.546 151.463 236.96 153.019 240.373C171.356 241.897 208.851 222.351 208.851 222.351C208.851 222.351 221.702 241.499 222.18 250.355C200.891 265.545 181.954 273.646 165.784 276.277C167.647 285.8 167.759 295.095 164.996 303.99C161.295 315.909 138.935 316.141 119.522 316.342Z" fill="#FF9B21"/>
<path fill-rule="evenodd" clip-rule="evenodd" d="M378.148 178.606C373.965 183.87 369.249 187.424 366.52 187.717C359.678 188.45 350.576 165.899 352.044 155.115C353.512 144.331 376.875 131.119 384.788 148.433C387.534 154.442 386.998 160.923 384.841 166.856L403.713 196.276L383.71 203.769L378.148 178.606Z" fill="#B28B67"/>
<path fill-rule="evenodd" clip-rule="evenodd" d="M356.284 142.38C358.706 140.526 362.568 138.758 364.308 138.323C362.509 136.411 361.186 134.025 360.572 131.45C359.975 128.947 360.284 126.51 360.476 124.006C360.564 122.852 360.715 121.68 361.206 120.639C361.705 119.578 362.511 118.7 363.464 118.068C364.439 117.421 365.564 117.023 366.717 116.847C367.227 116.768 367.733 116.825 368.242 116.771C368.763 116.716 368.882 116.333 369.116 115.906C369.678 114.877 370.764 114.066 371.768 113.545C372.894 112.961 374.185 112.679 375.455 112.645C376.691 112.611 377.973 112.828 379.098 113.422C379.599 113.686 380.088 114.018 380.483 114.438C380.645 114.61 380.704 114.726 380.937 114.724C381.152 114.723 381.374 114.642 381.594 114.635C383.721 114.565 385.881 115.415 387.46 116.954C388.381 117.851 389.342 119.679 390.081 121.854C390.82 124.029 390.974 130.37 389.92 133.099C388.978 135.535 387.04 137.635 384.931 139.027C387.115 140.198 388.951 141.996 390.535 143.931C392.256 146.033 393.699 148.346 394.842 150.825C395.927 153.181 396.903 155.737 397.221 158.321C397.519 160.738 397.06 162.984 395.59 164.85C394.917 165.705 394.128 166.453 393.321 167.169C392.525 167.875 391.723 168.572 390.825 169.137C389.125 170.207 386.978 170.937 385.011 170.007C384.302 169.671 383.491 169.22 382.877 168.715C382.656 168.534 382.518 168.413 382.596 168.126C382.69 167.781 382.928 167.455 383.1 167.149C384.077 165.404 384.358 163.458 383.863 161.456C383.361 159.425 381.895 157.109 379.679 156.971C376.943 156.8 374.814 158.97 373.152 160.872C371.1 158.089 368.233 155.966 364.849 155.605C361.105 155.205 357.419 156.375 353.672 156.232C352.695 156.195 351.685 156.116 350.794 155.629C350.422 155.425 349.971 155.149 349.718 154.79C349.386 154.318 349.56 153.753 349.669 153.248C350.244 150.568 353.862 144.235 356.284 142.38Z" fill="#191847"/>
<path fill-rule="evenodd" clip-rule="evenodd" d="M430.187 279.93C428.582 301.766 325.2 366.056 324.597 367.86C324.195 369.063 356.776 443.888 356.776 443.888L347.739 447.389C347.739 447.389 297.765 368.144 300.332 359.7C304.007 347.611 380.544 280.162 380.544 280.162L430.187 279.93Z" fill="#B28B67"/>
<path fill-rule="evenodd" clip-rule="evenodd" d="M354.398 432.622L339.643 437.977C308.531 402.979 296.336 374.102 298.559 359.389C300.783 344.676 378.495 279.983 378.495 279.983L431.245 279.983C429.445 330.554 333.623 368.053 332.341 370.208C331.059 372.363 343.673 393.469 354.398 432.622Z" fill="#2F3676"/>
<path fill-rule="evenodd" clip-rule="evenodd" d="M357.271 442.24C358.121 441.438 359.48 441.451 360.228 442.35C361.436 443.801 363.05 445.891 363.545 447.248C364.368 449.503 365.194 454.104 365.194 454.104C362.57 455.056 318.024 471.221 318.024 471.221C318.024 471.221 313.973 465.828 317.758 463.907C321.543 461.986 324.021 460.646 324.021 460.646L342.307 443.023C342.712 442.633 343.36 442.654 343.74 443.069L346.317 445.882C346.317 445.882 350.607 446.257 352.9 445.425C354.234 444.941 356.014 443.424 357.271 442.24Z" fill="#E4E4E4"/>
<path fill-rule="evenodd" clip-rule="evenodd" d="M418.3 279.93L464.354 390.159L509.618 483.349H498.938L382.1 279.93H418.3Z" fill="#997659"/>
<path fill-rule="evenodd" clip-rule="evenodd" d="M507.574 478.149C508.647 477.686 509.919 478.161 510.314 479.261C510.951 481.037 511.75 483.552 511.75 484.995C511.75 487.395 510.948 492 510.948 492C508.155 492 460.75 492 460.75 492C460.75 492 458.794 485.551 463.009 485.037C467.225 484.522 470.013 484.108 470.013 484.108L493.243 473.783C493.757 473.555 494.358 473.795 494.573 474.315L496.03 477.837C496.03 477.837 499.932 479.653 502.372 479.653C503.792 479.653 505.987 478.834 507.574 478.149Z" fill="#E4E4E4"/>
<path fill-rule="evenodd" clip-rule="evenodd" d="M505.53 463.99L481.801 468.426C463.453 441.533 386.669 331.263 378.25 279.93H431.077C459.191 317.038 488.041 436.652 505.53 463.99Z" fill="#5C63AB"/>
<path fill-rule="evenodd" clip-rule="evenodd" d="M303.218 253.245L336.947 263.33L328.329 277.639L302.107 262.258C289.864 261.535 284.079 260.333 284.754 258.652C285.322 257.234 286.674 256.992 287.92 256.77C288.89 256.596 289.795 256.434 290.215 255.737C291.174 254.145 287.816 250.002 284.461 246.207C281.106 242.412 283.792 242.234 285.415 242.538C290.992 244.794 296.926 248.363 303.218 253.245ZM449.164 257.104L466.827 251.301C483.064 282.053 492.554 298.833 495.295 301.639C497.306 303.698 508.703 308.235 516.315 310.471C519.37 311.368 519.048 313.889 518.293 314.776C513.531 320.368 508.328 319.251 502.665 318.036C501.026 317.685 499.348 317.324 497.631 317.117C493.186 316.578 492.145 318.951 491.161 321.193C490.29 323.178 489.464 325.061 486.36 324.731C486.425 324.124 486.512 323.442 486.606 322.706C487.216 317.946 488.115 310.927 485.056 307.288C483.486 305.421 471.522 288.693 449.164 257.104Z" fill="#B28B67"/>
<path fill-rule="evenodd" clip-rule="evenodd" d="M391.235 192.042L383.436 191.674C368.774 209.807 366.731 249.298 356.272 255.777C346.383 261.902 330.948 259.045 312.508 254.892L308.578 267.606C326.753 282.947 362.74 293.374 375.574 283.323C396.093 267.254 395.354 218.947 391.235 192.042Z" fill="#57331F"/>
<path fill-rule="evenodd" clip-rule="evenodd" d="M436.285 283.658C436.285 283.658 390.343 289.299 368.697 291.957C365.609 292.336 365.645 287.819 365.816 285.52C367.789 258.994 384.475 228.613 379.95 191.755L399.071 186.313C418.371 210.189 427.856 241.339 436.285 283.658Z" fill="#DDE3E9"/>
<path fill-rule="evenodd" clip-rule="evenodd" d="M400.106 186.186L400.329 186.159C447.355 207.655 478.896 246.056 494.949 301.361L481.122 305.867C470.399 296.119 456.628 279.701 439.807 256.615C445.867 271.022 450.833 285.952 453.573 300.309L392.733 307.78C377.312 279.55 392.61 187.106 392.61 187.106L396.81 186.591L400.106 186.186Z" fill="#784931"/>
</svg>
