<svg width="534" height="406" viewBox="0 0 534 406" fill="none" xmlns="http://www.w3.org/2000/svg">
<path fill-rule="evenodd" clip-rule="evenodd" d="M121.901 93.1284C129.372 94.2925 135.975 93.632 138.449 91.7897C144.652 87.1702 134.927 61.5468 125.478 53.7396C116.029 45.9324 86.6706 52.841 93.3743 73.2198C95.701 80.2926 101.095 85.2493 107.406 88.5135L114.322 127.288L136.54 118.211L121.901 93.1284Z" fill="#B28B67"/>
<path fill-rule="evenodd" clip-rule="evenodd" d="M107.521 93.6705C99.6642 82.4041 88.2653 77.1931 87.2132 71.1526C86.1611 65.1122 90.863 61.6142 90.863 61.6142C90.863 61.6142 89.0892 49.5111 104.57 45.1017C120.052 40.6924 131.604 43.1499 133.23 58.279C129.641 59.745 124.779 60.2171 119.697 64.8879C117.278 67.111 118.3 73.1176 118.3 73.1176L115.593 74.2235C115.593 74.2235 108.983 69.3004 105.86 72.597C102.737 75.8937 107.556 81.7209 107.556 81.7209L110.401 92.494L107.521 93.6705Z" fill="#191847"/>
<rect opacity="0.621698" x="98.9" y="193.93" width="72.09" height="9.76056" fill="#D8D8D8"/>
<path fill-rule="evenodd" clip-rule="evenodd" d="M116.7 193.93L182.833 304.159L232.413 397.349H243.092L160.02 193.93L116.7 193.93Z" fill="#997659"/>
<path fill-rule="evenodd" clip-rule="evenodd" d="M228.566 392.149C227.493 391.686 226.221 392.161 225.826 393.261C225.189 395.036 224.39 397.551 224.39 398.995C224.39 401.395 225.192 406 225.192 406C227.985 406 275.39 406 275.39 406C275.39 406 277.346 399.551 273.131 399.036C268.915 398.522 266.127 398.108 266.127 398.108L242.897 387.783C242.383 387.555 241.782 387.795 241.567 388.315L240.11 391.837C240.11 391.837 236.208 393.653 233.768 393.653C232.348 393.653 230.153 392.834 228.566 392.149Z" fill="#E4E4E4"/>
<path fill-rule="evenodd" clip-rule="evenodd" d="M218.643 382.426L239.238 376.215C239.238 376.215 225.703 335.876 206.061 287.431C186.418 238.986 163.87 193.93 163.87 193.93H105.703C105.703 193.93 130.772 250.924 158.856 297.503C186.939 344.082 218.643 382.426 218.643 382.426Z" fill="#00476E"/>
<path fill-rule="evenodd" clip-rule="evenodd" d="M112.354 193.93C106.112 232.665 94.0736 282.154 92.9375 283.681C92.1801 284.699 64.9132 293.809 11.137 311.009L13.4438 320.398C77.5719 311.173 111.362 304.016 114.814 298.927C119.992 291.293 145.846 230.987 155.86 193.93H112.354Z" fill="#B28B67"/>
<path fill-rule="evenodd" clip-rule="evenodd" d="M30.0403 302.893L34.1035 318.015C82.0676 322.209 111.456 319.178 122.269 308.923C133.083 298.668 145.407 260.337 159.241 193.93H103.776C95.0103 248.308 90.11 276.639 89.0746 278.922C88.0391 281.204 68.361 289.195 30.0403 302.893Z" fill="#005F89"/>
<path fill-rule="evenodd" clip-rule="evenodd" d="M15.12 309.589C15.3921 308.449 14.7001 307.275 13.5438 307.078C11.68 306.761 9.0603 306.414 7.63547 306.664C5.26466 307.081 0.855543 308.668 0.855543 308.668C1.3405 311.41 9.57227 357.955 9.57227 357.955C9.57227 357.955 16.2825 358.756 16.0584 354.527C15.8343 350.299 15.7594 347.489 15.7594 347.489L21.9226 322.895C22.0597 322.347 21.7171 321.795 21.1658 321.674L17.4358 320.856C17.4358 320.856 14.9649 317.34 14.5412 314.944C14.2953 313.554 14.7202 311.265 15.12 309.589Z" fill="#E4E4E4"/>
<path fill-rule="evenodd" clip-rule="evenodd" d="M179.267 115.703L151.024 136.706L164.02 147.207L183.396 123.792C194.654 118.929 199.678 115.823 198.469 114.473C197.449 113.335 196.096 113.57 194.849 113.786C193.878 113.955 192.972 114.112 192.339 113.6C190.892 112.432 192.63 107.392 194.484 102.679C196.337 97.9659 193.752 98.7167 192.332 99.5567C187.863 103.583 183.508 108.965 179.267 115.703ZM213.319 134.818L200.916 144.066L203.571 157.403C203.571 157.403 211.394 149.918 218.588 146.784C227.762 142.788 231.34 140.219 235.172 133.637C237.223 130.115 238.445 123.443 235.778 121.701C234.754 121.033 231.623 123.391 228.428 125.798C225.993 127.632 223.521 129.494 221.917 130.065C219.758 130.834 219.614 127.924 219.5 125.599C219.417 123.931 219.35 122.563 218.563 123.072C214.639 123.692 213.319 134.818 213.319 134.818Z" fill="#997659"/>
<path fill-rule="evenodd" clip-rule="evenodd" d="M135.603 135.079C146.302 133.46 160.273 129.196 174.163 117.405L182.022 129.875C172.968 141.758 159.382 152.386 146.402 153.841C136.173 154.987 129.239 143.432 135.603 135.079Z" fill="#E87613"/>
<path fill-rule="evenodd" clip-rule="evenodd" d="M119.522 230.342C109.149 230.45 99.6183 230.548 94.2245 232.417C85.1689 213.14 88.5536 199.727 91.6782 187.344C93.5614 179.881 95.3501 172.792 94.2637 165.02C91.1003 142.388 104.431 104.993 107.112 104.616L107.882 104.508L129.133 101.521L131.566 101.179C134.628 115.03 141.425 129.536 148.266 144.136C149.863 147.546 151.463 150.96 153.019 154.373C171.356 155.897 208.851 136.351 208.851 136.351C208.851 136.351 221.702 155.499 222.18 164.355C200.891 179.545 181.954 187.646 165.784 190.277C167.647 199.8 167.759 209.095 164.996 217.99C161.295 229.909 138.935 230.141 119.522 230.342Z" fill="#FF9B21"/>
<path fill-rule="evenodd" clip-rule="evenodd" d="M378.148 92.6056C373.965 97.8705 369.249 101.424 366.52 101.717C359.678 102.45 350.576 79.8993 352.044 69.1151C353.512 58.3309 376.875 45.1188 384.788 62.4327C387.534 68.4417 386.998 74.9233 384.841 80.8562L403.713 110.276L383.71 117.769L378.148 92.6056Z" fill="#B28B67"/>
<path fill-rule="evenodd" clip-rule="evenodd" d="M356.284 56.3805C358.706 54.5257 362.568 52.7577 364.308 52.3231C362.509 50.4108 361.186 48.0251 360.572 45.4497C359.975 42.9473 360.284 40.5104 360.476 38.0062C360.564 36.8519 360.715 35.6802 361.206 34.6391C361.705 33.5784 362.511 32.6999 363.464 32.0678C364.439 31.4208 365.564 31.023 366.717 30.8465C367.227 30.7684 367.733 30.8251 368.242 30.7712C368.763 30.716 368.882 30.3331 369.116 29.9059C369.678 28.8765 370.764 28.0656 371.768 27.5448C372.894 26.9606 374.185 26.6795 375.455 26.6447C376.691 26.6109 377.973 26.828 379.098 27.422C379.599 27.6863 380.088 28.0176 380.483 28.4379C380.645 28.6104 380.704 28.7262 380.937 28.7244C381.152 28.7229 381.374 28.642 381.594 28.6348C383.721 28.5651 385.881 29.4151 387.46 30.9536C388.381 31.8512 389.342 33.6787 390.081 35.854C390.82 38.0293 390.974 44.3698 389.92 47.0987C388.978 49.5345 387.04 51.6352 384.931 53.0268C387.115 54.198 388.951 55.9963 390.535 57.9312C392.256 60.033 393.699 62.3457 394.842 64.8253C395.927 67.1813 396.903 69.737 397.221 72.3211C397.519 74.7378 397.06 76.9835 395.59 78.85C394.917 79.7049 394.128 80.4532 393.321 81.1694C392.525 81.8751 391.723 82.572 390.825 83.1373C389.125 84.2071 386.978 84.9371 385.011 84.0066C384.302 83.6711 383.491 83.2195 382.877 82.7154C382.656 82.5341 382.518 82.4129 382.596 82.1255C382.69 81.7813 382.928 81.4553 383.1 81.1492C384.077 79.4042 384.358 77.4583 383.863 75.4564C383.361 73.4253 381.895 71.1095 379.679 70.971C376.943 70.8 374.814 72.9701 373.152 74.872C371.1 72.0893 368.233 69.966 364.849 69.6047C361.105 69.205 357.419 70.3748 353.672 70.2321C352.695 70.1949 351.685 70.1159 350.794 69.6287C350.422 69.4251 349.971 69.1489 349.718 68.7898C349.386 68.3181 349.56 67.7531 349.669 67.2477C350.244 64.5681 353.862 58.2352 356.284 56.3805Z" fill="#191847"/>
<path fill-rule="evenodd" clip-rule="evenodd" d="M430.187 193.93C428.582 215.766 325.2 280.056 324.597 281.86C324.195 283.063 356.776 357.888 356.776 357.888L347.739 361.389C347.739 361.389 297.765 282.144 300.332 273.7C304.007 261.611 380.544 194.162 380.544 194.162L430.187 193.93Z" fill="#B28B67"/>
<path fill-rule="evenodd" clip-rule="evenodd" d="M354.398 346.622L339.643 351.977C308.531 316.979 296.336 288.102 298.559 273.389C300.783 258.676 378.495 193.983 378.495 193.983L431.245 193.983C429.445 244.554 333.623 282.053 332.341 284.208C331.059 286.363 343.673 307.469 354.398 346.622Z" fill="#2F3676"/>
<path fill-rule="evenodd" clip-rule="evenodd" d="M357.271 356.24C358.121 355.438 359.48 355.451 360.228 356.35C361.436 357.801 363.05 359.891 363.545 361.248C364.368 363.503 365.194 368.104 365.194 368.104C362.57 369.056 318.024 385.221 318.024 385.221C318.024 385.221 313.973 379.828 317.758 377.907C321.543 375.986 324.021 374.646 324.021 374.646L342.307 357.023C342.712 356.633 343.36 356.654 343.74 357.069L346.317 359.882C346.317 359.882 350.607 360.257 352.9 359.425C354.234 358.941 356.014 357.424 357.271 356.24Z" fill="#E4E4E4"/>
<path fill-rule="evenodd" clip-rule="evenodd" d="M418.3 193.93L464.354 304.159L509.618 397.349H498.938L382.1 193.93H418.3Z" fill="#997659"/>
<path fill-rule="evenodd" clip-rule="evenodd" d="M507.574 392.149C508.647 391.686 509.919 392.161 510.314 393.261C510.951 395.037 511.75 397.552 511.75 398.995C511.75 401.395 510.948 406 510.948 406C508.155 406 460.75 406 460.75 406C460.75 406 458.794 399.551 463.009 399.037C467.225 398.522 470.013 398.108 470.013 398.108L493.243 387.783C493.757 387.555 494.358 387.795 494.573 388.315L496.03 391.837C496.03 391.837 499.932 393.653 502.372 393.653C503.792 393.653 505.987 392.834 507.574 392.149Z" fill="#E4E4E4"/>
<path fill-rule="evenodd" clip-rule="evenodd" d="M505.53 377.99L481.801 382.426C463.453 355.533 386.669 245.263 378.25 193.93H431.077C459.191 231.038 488.041 350.652 505.53 377.99Z" fill="#5C63AB"/>
<path fill-rule="evenodd" clip-rule="evenodd" d="M303.218 167.245L336.947 177.33L328.329 191.639L302.107 176.258C289.864 175.535 284.079 174.333 284.754 172.652C285.322 171.234 286.674 170.992 287.92 170.77C288.89 170.596 289.795 170.434 290.215 169.737C291.174 168.145 287.816 164.002 284.461 160.207C281.106 156.412 283.792 156.234 285.415 156.538C290.992 158.794 296.926 162.363 303.218 167.245ZM449.164 171.104L466.827 165.301C483.064 196.053 492.554 212.833 495.295 215.639C497.306 217.698 508.703 222.235 516.315 224.471C519.37 225.368 519.048 227.889 518.293 228.776C513.531 234.368 508.328 233.251 502.665 232.036C501.026 231.685 499.348 231.324 497.631 231.117C493.186 230.578 492.145 232.951 491.161 235.193C490.29 237.178 489.464 239.061 486.36 238.731C486.425 238.124 486.512 237.442 486.606 236.706C487.216 231.946 488.115 224.927 485.056 221.288C483.486 219.421 471.522 202.693 449.164 171.104Z" fill="#B28B67"/>
<path fill-rule="evenodd" clip-rule="evenodd" d="M391.235 106.042L383.436 105.674C368.774 123.807 366.731 163.298 356.272 169.777C346.383 175.902 330.948 173.045 312.508 168.892L308.578 181.606C326.753 196.947 362.74 207.374 375.574 197.323C396.093 181.254 395.354 132.947 391.235 106.042Z" fill="#57331F"/>
<path fill-rule="evenodd" clip-rule="evenodd" d="M436.285 197.658C436.285 197.658 390.343 203.299 368.697 205.957C365.609 206.336 365.645 201.819 365.816 199.52C367.789 172.994 384.475 142.613 379.95 105.755L399.071 100.313C418.371 124.189 427.856 155.339 436.285 197.658Z" fill="#DDE3E9"/>
<path fill-rule="evenodd" clip-rule="evenodd" d="M400.106 100.186L400.329 100.159C447.355 121.655 478.896 160.056 494.949 215.361L481.122 219.867C470.399 210.119 456.628 193.701 439.807 170.615C445.867 185.022 450.833 199.952 453.573 214.309L392.733 221.78C377.312 193.55 392.61 101.106 392.61 101.106L396.81 100.591L400.106 100.186Z" fill="#784931"/>
</svg>
